<mxfile host="app.diagrams.net" modified="2022-03-21T05:41:05.429Z" agent="5.0 (Windows NT 10.0; Win64; x64) AppleWebKit/537.36 (KHTML, like Gecko) Chrome/99.0.4844.74 Safari/537.36" etag="pN6851UqmXUvXd7TuPyr" version="17.1.3" type="github">
  <diagram id="yr1wURz2nJ4A0WLAVUg4" name="Page-1">
    <mxGraphModel dx="2980" dy="2417" grid="1" gridSize="10" guides="1" tooltips="1" connect="1" arrows="1" fold="1" page="1" pageScale="1" pageWidth="827" pageHeight="1169" math="0" shadow="0">
      <root>
        <mxCell id="0" />
        <mxCell id="1" parent="0" />
        <mxCell id="qweALPU_pZwWx6HFjgQL-3" value="" style="edgeStyle=orthogonalEdgeStyle;rounded=0;orthogonalLoop=1;jettySize=auto;html=1;" edge="1" parent="1" source="qweALPU_pZwWx6HFjgQL-1" target="qweALPU_pZwWx6HFjgQL-2">
          <mxGeometry relative="1" as="geometry" />
        </mxCell>
        <mxCell id="qweALPU_pZwWx6HFjgQL-1" value="Start" style="ellipse;whiteSpace=wrap;html=1;" vertex="1" parent="1">
          <mxGeometry x="300" y="-1150" width="120" height="80" as="geometry" />
        </mxCell>
        <mxCell id="qweALPU_pZwWx6HFjgQL-5" value="" style="edgeStyle=orthogonalEdgeStyle;rounded=0;orthogonalLoop=1;jettySize=auto;html=1;" edge="1" parent="1" source="qweALPU_pZwWx6HFjgQL-2" target="qweALPU_pZwWx6HFjgQL-4">
          <mxGeometry relative="1" as="geometry" />
        </mxCell>
        <mxCell id="qweALPU_pZwWx6HFjgQL-2" value="Solar Panel is placed 30Â° titled under the sun" style="whiteSpace=wrap;html=1;" vertex="1" parent="1">
          <mxGeometry x="300" y="-1030" width="120" height="60" as="geometry" />
        </mxCell>
        <mxCell id="qweALPU_pZwWx6HFjgQL-14" value="" style="edgeStyle=orthogonalEdgeStyle;rounded=0;orthogonalLoop=1;jettySize=auto;html=1;" edge="1" parent="1" source="qweALPU_pZwWx6HFjgQL-4" target="qweALPU_pZwWx6HFjgQL-13">
          <mxGeometry relative="1" as="geometry" />
        </mxCell>
        <mxCell id="qweALPU_pZwWx6HFjgQL-4" value="Voltage generated from solar panel as input to battery controller" style="shape=parallelogram;perimeter=parallelogramPerimeter;whiteSpace=wrap;html=1;fixedSize=1;" vertex="1" parent="1">
          <mxGeometry x="270" y="-940" width="180" height="60" as="geometry" />
        </mxCell>
        <mxCell id="qweALPU_pZwWx6HFjgQL-24" value="" style="edgeStyle=orthogonalEdgeStyle;rounded=0;orthogonalLoop=1;jettySize=auto;html=1;" edge="1" parent="1" source="qweALPU_pZwWx6HFjgQL-8" target="qweALPU_pZwWx6HFjgQL-23">
          <mxGeometry relative="1" as="geometry" />
        </mxCell>
        <mxCell id="qweALPU_pZwWx6HFjgQL-27" value="" style="edgeStyle=orthogonalEdgeStyle;rounded=0;orthogonalLoop=1;jettySize=auto;html=1;" edge="1" parent="1" source="qweALPU_pZwWx6HFjgQL-8" target="qweALPU_pZwWx6HFjgQL-26">
          <mxGeometry relative="1" as="geometry" />
        </mxCell>
        <mxCell id="qweALPU_pZwWx6HFjgQL-8" value="Is battery fully charged?" style="rhombus;whiteSpace=wrap;html=1;" vertex="1" parent="1">
          <mxGeometry x="300" y="-760" width="120" height="90" as="geometry" />
        </mxCell>
        <mxCell id="qweALPU_pZwWx6HFjgQL-10" value="Yes" style="text;html=1;align=center;verticalAlign=middle;resizable=0;points=[];autosize=1;strokeColor=none;fillColor=none;" vertex="1" parent="1">
          <mxGeometry x="330" y="-670" width="30" height="20" as="geometry" />
        </mxCell>
        <mxCell id="qweALPU_pZwWx6HFjgQL-11" value="No" style="text;html=1;align=center;verticalAlign=middle;resizable=0;points=[];autosize=1;strokeColor=none;fillColor=none;" vertex="1" parent="1">
          <mxGeometry x="430" y="-740" width="30" height="20" as="geometry" />
        </mxCell>
        <mxCell id="qweALPU_pZwWx6HFjgQL-16" style="edgeStyle=orthogonalEdgeStyle;rounded=0;orthogonalLoop=1;jettySize=auto;html=1;" edge="1" parent="1" source="qweALPU_pZwWx6HFjgQL-13" target="qweALPU_pZwWx6HFjgQL-8">
          <mxGeometry relative="1" as="geometry" />
        </mxCell>
        <mxCell id="qweALPU_pZwWx6HFjgQL-13" value="Battery controller charges the Li-Ion battery in CC mode" style="whiteSpace=wrap;html=1;" vertex="1" parent="1">
          <mxGeometry x="300" y="-850" width="120" height="60" as="geometry" />
        </mxCell>
        <mxCell id="qweALPU_pZwWx6HFjgQL-25" style="edgeStyle=orthogonalEdgeStyle;rounded=0;orthogonalLoop=1;jettySize=auto;html=1;entryX=1;entryY=0.5;entryDx=0;entryDy=0;" edge="1" parent="1" source="qweALPU_pZwWx6HFjgQL-23" target="qweALPU_pZwWx6HFjgQL-13">
          <mxGeometry relative="1" as="geometry">
            <Array as="points">
              <mxPoint x="510" y="-820" />
            </Array>
          </mxGeometry>
        </mxCell>
        <mxCell id="qweALPU_pZwWx6HFjgQL-23" value="Red LED is lighted up" style="shape=parallelogram;perimeter=parallelogramPerimeter;whiteSpace=wrap;html=1;fixedSize=1;" vertex="1" parent="1">
          <mxGeometry x="460" y="-745" width="100" height="60" as="geometry" />
        </mxCell>
        <mxCell id="qweALPU_pZwWx6HFjgQL-29" value="" style="edgeStyle=orthogonalEdgeStyle;rounded=0;orthogonalLoop=1;jettySize=auto;html=1;" edge="1" parent="1" source="qweALPU_pZwWx6HFjgQL-26" target="qweALPU_pZwWx6HFjgQL-28">
          <mxGeometry relative="1" as="geometry" />
        </mxCell>
        <mxCell id="qweALPU_pZwWx6HFjgQL-26" value="Blue LED is lighted up" style="shape=parallelogram;perimeter=parallelogramPerimeter;whiteSpace=wrap;html=1;fixedSize=1;" vertex="1" parent="1">
          <mxGeometry x="310" y="-640" width="100" height="60" as="geometry" />
        </mxCell>
        <mxCell id="qweALPU_pZwWx6HFjgQL-31" value="" style="edgeStyle=orthogonalEdgeStyle;rounded=0;orthogonalLoop=1;jettySize=auto;html=1;" edge="1" parent="1" source="qweALPU_pZwWx6HFjgQL-28" target="qweALPU_pZwWx6HFjgQL-30">
          <mxGeometry relative="1" as="geometry" />
        </mxCell>
        <mxCell id="qweALPU_pZwWx6HFjgQL-28" value="Battery Controller switch to CV mode" style="whiteSpace=wrap;html=1;" vertex="1" parent="1">
          <mxGeometry x="300" y="-550" width="120" height="60" as="geometry" />
        </mxCell>
        <mxCell id="qweALPU_pZwWx6HFjgQL-38" style="edgeStyle=orthogonalEdgeStyle;rounded=0;orthogonalLoop=1;jettySize=auto;html=1;entryX=1;entryY=0.5;entryDx=0;entryDy=0;" edge="1" parent="1" source="qweALPU_pZwWx6HFjgQL-30" target="qweALPU_pZwWx6HFjgQL-28">
          <mxGeometry relative="1" as="geometry">
            <Array as="points">
              <mxPoint x="440" y="-425" />
              <mxPoint x="440" y="-520" />
            </Array>
          </mxGeometry>
        </mxCell>
        <mxCell id="qweALPU_pZwWx6HFjgQL-47" value="" style="edgeStyle=orthogonalEdgeStyle;rounded=0;orthogonalLoop=1;jettySize=auto;html=1;" edge="1" parent="1" source="qweALPU_pZwWx6HFjgQL-30" target="qweALPU_pZwWx6HFjgQL-46">
          <mxGeometry relative="1" as="geometry" />
        </mxCell>
        <mxCell id="qweALPU_pZwWx6HFjgQL-30" value="Is the switch turned on?" style="rhombus;whiteSpace=wrap;html=1;" vertex="1" parent="1">
          <mxGeometry x="310" y="-470" width="100" height="90" as="geometry" />
        </mxCell>
        <mxCell id="qweALPU_pZwWx6HFjgQL-35" value="" style="edgeStyle=orthogonalEdgeStyle;rounded=0;orthogonalLoop=1;jettySize=auto;html=1;" edge="1" parent="1" source="qweALPU_pZwWx6HFjgQL-32" target="qweALPU_pZwWx6HFjgQL-34">
          <mxGeometry relative="1" as="geometry" />
        </mxCell>
        <mxCell id="qweALPU_pZwWx6HFjgQL-32" value="The output voltage of battery is boosted to 5V" style="whiteSpace=wrap;html=1;" vertex="1" parent="1">
          <mxGeometry x="627.5" y="-530" width="120" height="60" as="geometry" />
        </mxCell>
        <mxCell id="qweALPU_pZwWx6HFjgQL-40" value="" style="edgeStyle=orthogonalEdgeStyle;rounded=0;orthogonalLoop=1;jettySize=auto;html=1;" edge="1" parent="1" source="qweALPU_pZwWx6HFjgQL-34" target="qweALPU_pZwWx6HFjgQL-39">
          <mxGeometry relative="1" as="geometry" />
        </mxCell>
        <mxCell id="qweALPU_pZwWx6HFjgQL-34" value="Electrical load receive 5V via USB adapter" style="shape=parallelogram;perimeter=parallelogramPerimeter;whiteSpace=wrap;html=1;fixedSize=1;" vertex="1" parent="1">
          <mxGeometry x="622.5" y="-450" width="130" height="60" as="geometry" />
        </mxCell>
        <mxCell id="qweALPU_pZwWx6HFjgQL-36" value="END" style="ellipse;whiteSpace=wrap;html=1;" vertex="1" parent="1">
          <mxGeometry x="627.5" y="-144" width="120" height="60" as="geometry" />
        </mxCell>
        <mxCell id="qweALPU_pZwWx6HFjgQL-43" value="" style="edgeStyle=orthogonalEdgeStyle;rounded=0;orthogonalLoop=1;jettySize=auto;html=1;" edge="1" parent="1" source="qweALPU_pZwWx6HFjgQL-39" target="qweALPU_pZwWx6HFjgQL-42">
          <mxGeometry relative="1" as="geometry" />
        </mxCell>
        <mxCell id="qweALPU_pZwWx6HFjgQL-45" style="edgeStyle=orthogonalEdgeStyle;rounded=0;orthogonalLoop=1;jettySize=auto;html=1;entryX=1;entryY=0.5;entryDx=0;entryDy=0;" edge="1" parent="1" source="qweALPU_pZwWx6HFjgQL-39" target="qweALPU_pZwWx6HFjgQL-36">
          <mxGeometry relative="1" as="geometry">
            <Array as="points">
              <mxPoint x="775.5" y="-319" />
              <mxPoint x="775.5" y="-114" />
            </Array>
          </mxGeometry>
        </mxCell>
        <mxCell id="qweALPU_pZwWx6HFjgQL-39" value="Is the battery over-discharged?" style="rhombus;whiteSpace=wrap;html=1;" vertex="1" parent="1">
          <mxGeometry x="620" y="-364" width="135" height="90" as="geometry" />
        </mxCell>
        <mxCell id="qweALPU_pZwWx6HFjgQL-44" value="" style="edgeStyle=orthogonalEdgeStyle;rounded=0;orthogonalLoop=1;jettySize=auto;html=1;" edge="1" parent="1" source="qweALPU_pZwWx6HFjgQL-42" target="qweALPU_pZwWx6HFjgQL-36">
          <mxGeometry relative="1" as="geometry" />
        </mxCell>
        <mxCell id="qweALPU_pZwWx6HFjgQL-42" value="Cut off the circuit automatically" style="whiteSpace=wrap;html=1;" vertex="1" parent="1">
          <mxGeometry x="627.5" y="-244" width="120" height="60" as="geometry" />
        </mxCell>
        <mxCell id="qweALPU_pZwWx6HFjgQL-46" value="Output To Load" style="ellipse;whiteSpace=wrap;html=1;aspect=fixed;" vertex="1" parent="1">
          <mxGeometry x="335" y="-350" width="50" height="50" as="geometry" />
        </mxCell>
        <mxCell id="qweALPU_pZwWx6HFjgQL-51" style="edgeStyle=orthogonalEdgeStyle;rounded=0;orthogonalLoop=1;jettySize=auto;html=1;" edge="1" parent="1" source="qweALPU_pZwWx6HFjgQL-48" target="qweALPU_pZwWx6HFjgQL-32">
          <mxGeometry relative="1" as="geometry" />
        </mxCell>
        <mxCell id="qweALPU_pZwWx6HFjgQL-48" value="Output To Load" style="ellipse;whiteSpace=wrap;html=1;aspect=fixed;" vertex="1" parent="1">
          <mxGeometry x="662.5" y="-609" width="50" height="50" as="geometry" />
        </mxCell>
        <mxCell id="qweALPU_pZwWx6HFjgQL-52" value="Yes" style="text;html=1;align=center;verticalAlign=middle;resizable=0;points=[];autosize=1;strokeColor=none;fillColor=none;" vertex="1" parent="1">
          <mxGeometry x="330" y="-380" width="30" height="20" as="geometry" />
        </mxCell>
        <mxCell id="qweALPU_pZwWx6HFjgQL-53" value="Yes" style="text;html=1;align=center;verticalAlign=middle;resizable=0;points=[];autosize=1;strokeColor=none;fillColor=none;" vertex="1" parent="1">
          <mxGeometry x="650" y="-274" width="30" height="20" as="geometry" />
        </mxCell>
        <mxCell id="qweALPU_pZwWx6HFjgQL-55" value="No" style="text;html=1;align=center;verticalAlign=middle;resizable=0;points=[];autosize=1;strokeColor=none;fillColor=none;" vertex="1" parent="1">
          <mxGeometry x="410" y="-450" width="30" height="20" as="geometry" />
        </mxCell>
        <mxCell id="qweALPU_pZwWx6HFjgQL-56" value="No" style="text;html=1;align=center;verticalAlign=middle;resizable=0;points=[];autosize=1;strokeColor=none;fillColor=none;" vertex="1" parent="1">
          <mxGeometry x="747.5" y="-350" width="30" height="20" as="geometry" />
        </mxCell>
      </root>
    </mxGraphModel>
  </diagram>
</mxfile>
